<?xml version="1.0" encoding="UTF-8"?>
<svg version="1.1" xmlns="http://www.w3.org/2000/svg" width="500" height="500">
<path d="M0 0 C2.41441234 -0.00734923 4.82882117 -0.01593793 7.2432251 -0.02566528 C13.09593879 -0.04550916 18.94853549 -0.05126668 24.80128033 -0.0494774 C29.56578854 -0.04816367 34.33026608 -0.05200483 39.09476852 -0.05940247 C40.47339419 -0.06150195 41.85201986 -0.06359954 43.23064554 -0.06569529 C43.9170949 -0.06673881 44.60354426 -0.06778234 45.31079511 -0.06885749 C58.26195093 -0.08771468 71.21304998 -0.08672394 84.16421382 -0.07988816 C95.97145136 -0.07431924 107.77847149 -0.09511834 119.58565827 -0.12824863 C131.75076367 -0.16211434 143.91576533 -0.17713781 156.08091867 -0.1725316 C162.8940086 -0.17029945 169.70689779 -0.17534398 176.51994705 -0.20042419 C182.93386976 -0.22282932 189.3473431 -0.22069934 195.76126862 -0.20049667 C198.10118592 -0.1971106 200.44113429 -0.20207055 202.78100967 -0.21648026 C231.40735511 -0.38045883 254.67629373 6.90755871 275.61474609 26.85351562 C285.48510869 37.25325753 292.85853999 49.71635693 297.06005859 63.41992188 C297.3132914 64.21141317 297.5665242 65.00290447 297.82743073 65.81838036 C300.95590467 77.18401093 300.49685267 88.66164582 300.47998047 100.35986328 C300.4873297 102.77427562 300.4959184 105.18868445 300.50564575 107.60308838 C300.52548963 113.45580207 300.53124715 119.30839878 300.52945787 125.16114362 C300.52814414 129.92565182 300.5319853 134.69012936 300.53938293 139.45463181 C300.54148241 140.83325747 300.54358001 142.21188314 300.54567575 143.59050882 C300.54724105 144.62018286 300.54724105 144.62018286 300.54883796 145.67065839 C300.56769515 158.62181421 300.56670441 171.57291326 300.55986863 184.5240771 C300.55429971 196.33131464 300.57509881 208.13833477 300.6082291 219.94552155 C300.64209481 232.11062695 300.65711828 244.27562861 300.65251207 256.44078195 C300.65027992 263.25387188 300.65532445 270.06676107 300.68040466 276.87981033 C300.70280979 283.29373305 300.70067981 289.70720639 300.68047714 296.1211319 C300.67709107 298.4610492 300.68205102 300.80099757 300.69646072 303.14087296 C300.8604393 331.76721839 293.57242176 355.03615701 273.62646484 375.97460938 C263.22672294 385.84497197 250.76362354 393.21840327 237.06005859 397.41992188 C236.2685673 397.67315468 235.477076 397.92638748 234.66160011 398.18729401 C223.29596954 401.31576796 211.81833465 400.85671595 200.12011719 400.83984375 C197.70570485 400.84719298 195.29129602 400.85578168 192.87689209 400.86550903 C187.0241784 400.88535291 181.17158169 400.89111043 175.31883685 400.88932115 C170.55432865 400.88800742 165.78985111 400.89184858 161.02534866 400.89924622 C159.646723 400.9013457 158.26809732 400.90344329 156.88947165 400.90553904 C156.20302229 400.90658256 155.51657293 400.90762609 154.80932207 400.90870124 C141.85816626 400.92755843 128.90706721 400.92656769 115.95590337 400.91973191 C104.14866582 400.91416299 92.34164569 400.93496209 80.53445892 400.96809238 C68.36935351 401.00195809 56.20435186 401.01698156 44.03919852 401.01237535 C37.22610859 401.0101432 30.4132194 401.01518773 23.60017014 401.04026794 C17.18624742 401.06267307 10.77277408 401.06054309 4.35884857 401.04034042 C2.01893127 401.03695435 -0.3210171 401.0419143 -2.66089249 401.05632401 C-31.28723792 401.22030258 -54.55617654 393.93228504 -75.49462891 373.98632812 C-85.3649915 363.58658622 -92.7384228 351.12348682 -96.93994141 337.41992188 C-97.19317421 336.62843058 -97.44640701 335.83693928 -97.70731354 335.02146339 C-100.83578749 323.65583282 -100.37673548 312.17819793 -100.35986328 300.47998047 C-100.36721251 298.06556813 -100.37580121 295.6511593 -100.38552856 293.23675537 C-100.40537245 287.38404168 -100.41112996 281.53144497 -100.40934068 275.67870013 C-100.40802696 270.91419193 -100.41186812 266.14971439 -100.41926575 261.38521194 C-100.42136523 260.00658628 -100.42346283 258.62796061 -100.42555857 257.24933493 C-100.42660209 256.56288557 -100.42764562 255.87643621 -100.42872077 255.16918536 C-100.44757796 242.21802954 -100.44658722 229.26693049 -100.43975145 216.31576665 C-100.43418253 204.50852911 -100.45498162 192.70150898 -100.48811191 180.8943222 C-100.52197763 168.7292168 -100.53700109 156.56421514 -100.53239489 144.3990618 C-100.53016273 137.58597187 -100.53520726 130.77308268 -100.56028748 123.96003342 C-100.5826926 117.5461107 -100.58056262 111.13263736 -100.56035995 104.71871185 C-100.55697388 102.37879455 -100.56193383 100.03884618 -100.57634354 97.69897079 C-100.74032211 69.07262536 -93.45230457 45.80368674 -73.50634766 24.86523438 C-63.10660576 14.99487178 -50.64350636 7.62144048 -36.93994141 3.41992188 C-35.75270446 3.04007267 -35.75270446 3.04007267 -34.54148293 2.65254974 C-23.17585235 -0.47592421 -11.69821746 -0.0168722 0 0 Z M181.06005859 136.41992188 C180.36242626 139.2561976 180.34441248 141.58596325 181.06005859 144.41992188 C183.31552598 147.44869237 185.01117659 148.98961131 188.49755859 150.41992188 C192.02220367 150.41992188 194.09383628 149.26557131 197.06005859 147.41992188 C199.52225631 143.7266253 199.85204543 140.70498747 199.06005859 136.41992188 C197.07083973 133.43609358 195.67503291 131.81715346 192.12255859 130.94335938 C186.86225295 130.56477677 184.06723921 131.90915095 181.06005859 136.41992188 Z M-56.93994141 161.41992188 C-56.93994141 184.18992188 -56.93994141 206.95992187 -56.93994141 230.41992188 C-52.31994141 230.41992188 -47.69994141 230.41992188 -42.93994141 230.41992188 C-42.93994141 213.25992188 -42.93994141 196.09992188 -42.93994141 178.41992188 C-23.8728225 174.95317298 -23.8728225 174.95317298 -20.35473633 176.71337891 C-16.53853686 180.99063978 -17.21298879 185.42034193 -17.23291016 190.96679688 C-17.21778885 192.09313538 -17.20266754 193.21947388 -17.18708801 194.37994385 C-17.1441064 197.97680518 -17.1353624 201.57282897 -17.12744141 205.16992188 C-17.10430542 207.60874639 -17.07894197 210.04755087 -17.05126953 212.48632812 C-16.988313 218.4642671 -16.95605952 224.4416805 -16.93994141 230.41992188 C-12.31994141 230.41992188 -7.69994141 230.41992188 -2.93994141 230.41992188 C-2.91527781 223.33577734 -2.89709881 216.25165764 -2.88500977 209.16748047 C-2.87997166 206.75601771 -2.87314106 204.34455802 -2.86450195 201.93310547 C-2.85241354 198.47297408 -2.84670797 195.01288297 -2.84228516 191.55273438 C-2.83712387 190.46936798 -2.83196259 189.38600159 -2.8266449 188.26980591 C-2.82656937 187.26891937 -2.82649384 186.26803284 -2.82641602 185.23681641 C-2.8241954 184.353013 -2.82197479 183.46920959 -2.81968689 182.55862427 C-2.80120196 180.36715412 -2.80120196 180.36715412 -3.93994141 178.41992188 C-2.78494141 178.29617187 -1.62994141 178.17242187 -0.43994141 178.04492188 C2.51927132 177.69002511 5.26193871 177.12343801 8.12255859 176.29492188 C12.02999179 175.27960459 15.11512086 175.33699779 19.06005859 176.41992188 C21.87967337 179.35292433 22.44176712 181.45123677 22.49243164 185.46386719 C22.5122258 186.46460266 22.53201996 187.46533813 22.55241394 188.49639893 C22.55880386 189.56944275 22.56519379 190.64248657 22.57177734 191.74804688 C22.58972855 192.85218933 22.60767975 193.95633179 22.62617493 195.09393311 C22.68034087 198.61922389 22.71419459 202.14437879 22.74755859 205.66992188 C22.78072603 208.06056581 22.81521514 210.4511918 22.85107422 212.84179688 C22.93607135 218.70107393 23.00285311 224.56031023 23.06005859 230.41992188 C27.68005859 230.41992188 32.30005859 230.41992188 37.06005859 230.41992188 C37.13445579 223.4456615 37.18877818 216.4716344 37.22485352 209.49707031 C37.23989958 207.12658664 37.26034132 204.75613063 37.28637695 202.38574219 C37.32294365 198.96998248 37.33982728 195.55459226 37.35302734 192.13867188 C37.3685112 191.08627319 37.38399506 190.03387451 37.39994812 188.94958496 C37.40155181 181.86913181 36.64553339 176.20436038 32.55224609 170.21289062 C28.31263927 166.00400559 24.09827459 163.14523311 18.06005859 162.41992188 C10.63220509 162.59105785 4.32278377 164.91917625 -2.45361328 167.77539062 C-4.68974919 168.61466015 -6.55492145 169.25599309 -8.93994141 169.41992188 C-11.50550627 168.10898728 -12.89347909 166.53861228 -14.93994141 164.41992188 C-24.67269561 160.3799107 -33.53293808 163.99774638 -42.93994141 167.41992188 C-42.93994141 165.43992188 -42.93994141 163.45992187 -42.93994141 161.41992188 C-47.55994141 161.41992188 -52.17994141 161.41992188 -56.93994141 161.41992188 Z M53.06005859 161.41992188 C52.96076997 168.37585341 52.88839058 175.3313673 52.84033203 182.2878418 C52.82028578 184.65152172 52.79304141 187.01515249 52.75830078 189.37866211 C52.70947589 192.78707045 52.68701911 196.19481991 52.66943359 199.60351562 C52.64878845 200.65075302 52.62814331 201.69799042 52.60687256 202.77696228 C52.60465155 210.13090547 53.64042338 216.65383819 58.73773193 222.26756287 C64.65846756 227.79909053 71.95303056 230.68228524 80.06005859 230.41992188 C84.231386 229.53545704 88.24064755 228.3296274 92.06005859 226.41992188 C92.39005859 227.07992187 92.72005859 227.73992187 93.06005859 228.41992188 C97.68005859 228.41992188 102.30005859 228.41992188 107.06005859 228.41992188 C107.06005859 206.30992187 107.06005859 184.19992188 107.06005859 161.41992188 C102.44005859 161.41992188 97.82005859 161.41992188 93.06005859 161.41992188 C92.73005859 178.90992188 92.40005859 196.39992188 92.06005859 214.41992188 C79.25833446 218.68716325 79.25833446 218.68716325 72.74755859 216.10742188 C70.06005859 214.41992188 70.06005859 214.41992188 68.06005859 211.41992188 C67.78158569 209.16096497 67.78158569 209.16096497 67.74121094 206.48950195 C67.72134125 205.48869095 67.70147156 204.48787994 67.68099976 203.45674133 C67.66944855 202.37853622 67.65789734 201.30033112 67.64599609 200.18945312 C67.62662994 199.08389572 67.60726379 197.97833832 67.58731079 196.83927917 C67.52747024 193.30373887 67.4811113 189.76816608 67.43505859 186.23242188 C67.39688297 183.83722528 67.35783149 181.44204248 67.31787109 179.046875 C67.22176485 173.17133578 67.13775004 167.29573229 67.06005859 161.41992188 C62.44005859 161.41992188 57.82005859 161.41992188 53.06005859 161.41992188 Z M125.06005859 172.41992188 C123.0642577 176.41152366 123.55574956 181.0805186 124.06005859 185.41992188 C126.41796354 191.98679734 131.07305062 195.29423719 137.06005859 198.41992188 C140.8658481 199.92194886 144.77593517 201.03496921 148.70068359 202.1796875 C153.03203217 203.51494276 156.34401906 204.54513721 159.06005859 208.41992188 C158.81005859 212.16992188 158.81005859 212.16992188 158.06005859 215.41992188 C153.76276684 217.51820886 149.76300162 217.80337091 145.06005859 217.79492188 C143.9431665 217.79685547 143.9431665 217.79685547 142.80371094 217.79882812 C136.59634178 217.68198353 131.44599405 216.42644012 125.59912109 214.29492188 C123.03494169 213.25701619 123.03494169 213.25701619 120.06005859 213.41992188 C120.06005859 216.38992188 120.06005859 219.35992187 120.06005859 222.41992188 C130.7786118 228.93865736 144.64305769 232.32770057 157.06005859 229.41992188 C162.98900888 227.48020357 167.8261839 225.12685887 171.13818359 219.63085938 C173.28977132 214.4706956 172.67000162 208.32150897 170.99755859 203.10742188 C165.41843193 195.36863328 158.66493516 192.83592974 149.89990234 189.81445312 C140.86665164 186.62981145 140.86665164 186.62981145 138.06005859 182.41992188 C137.98100795 180.087928 137.9720709 177.75159565 138.06005859 175.41992188 C148.6036869 171.40330157 159.59433092 173.02563182 170.06005859 176.41992188 C170.06005859 172.78992188 170.06005859 169.15992188 170.06005859 165.41992188 C153.70463149 158.15084316 137.63350039 159.20096855 125.06005859 172.41992188 Z M183.06005859 161.41992188 C183.06005859 184.18992188 183.06005859 206.95992187 183.06005859 230.41992188 C187.68005859 230.41992188 192.30005859 230.41992188 197.06005859 230.41992188 C197.06005859 207.64992188 197.06005859 184.87992188 197.06005859 161.41992188 C192.44005859 161.41992188 187.82005859 161.41992188 183.06005859 161.41992188 Z M220.06005859 172.41992188 C214.01494333 181.08867853 212.05551653 189.94757085 213.06005859 200.41992188 C215.00219845 209.97613274 218.42021716 216.90548156 225.37255859 223.66992188 C234.56471024 229.65550899 243.87941573 231.5943431 254.74755859 229.54492188 C257.68798695 229.01235101 257.68798695 229.01235101 260.06005859 227.41992188 C260.13185823 225.9006415 260.14397867 224.37824706 260.12255859 222.85742188 C260.11353516 222.03113281 260.10451172 221.20484375 260.09521484 220.35351562 C260.08361328 219.71542969 260.07201172 219.07734375 260.06005859 218.41992188 C258.99787109 218.45472656 257.93568359 218.48953125 256.84130859 218.52539062 C240.66873192 218.90203061 240.66873192 218.90203061 233.24755859 213.29492188 C227.60531869 205.87940658 227.20338634 197.4912596 228.06005859 188.41992188 C229.35050401 182.84799867 233.01004586 177.3650493 237.86083984 174.27148438 C243.717761 172.00361792 251.02361809 172.73967376 256.81005859 174.91992188 C257.88255859 175.41492188 258.95505859 175.90992188 260.06005859 176.41992188 C260.06005859 172.78992188 260.06005859 169.15992188 260.06005859 165.41992188 C245.78483495 157.54393641 230.83802692 160.44178677 220.06005859 172.41992188 Z M211.06005859 271.41992188 C211.06005859 272.40992188 211.06005859 273.39992188 211.06005859 274.41992188 C212.71328125 274.31164062 212.71328125 274.31164062 214.39990234 274.20117188 C222.34553477 273.70429405 230.28560716 273.30364586 238.24755859 273.23242188 C238.92874756 273.21953125 239.60993652 273.20664062 240.31176758 273.19335938 C244.96405101 273.18417535 248.70162614 273.93019083 253.06005859 275.41992188 C254.68707054 277.04693382 254.3094645 278.79345892 254.37255859 281.04492188 C254.25567029 292.33925394 249.97338363 303.14259436 246.01318359 313.59179688 C244.90037492 316.39633472 244.90037492 316.39633472 245.06005859 319.41992188 C251.1675084 318.31552463 254.46185673 313.69284435 257.89208984 308.81445312 C262.6942109 301.06200932 265.52666218 293.1297806 268.06005859 284.41992188 C268.26244141 283.76121094 268.46482422 283.1025 268.67333984 282.42382812 C269.25714035 279.39868004 269.31107325 276.43492527 269.37255859 273.35742188 C269.40994141 272.12894531 269.44732422 270.90046875 269.48583984 269.63476562 C269.36332767 266.42972037 269.36332767 266.42972037 267.47802734 264.61132812 C251.41655165 256.69735383 224.6399721 259.68612564 211.06005859 271.41992188 Z M-60.93994141 268.41992188 C-60.93994141 269.73992187 -60.93994141 271.05992187 -60.93994141 272.41992188 C-21.00881705 311.99259808 47.61352517 329.91939678 101.87255859 329.79492188 C102.81204346 329.79404572 103.75152832 329.79316956 104.71948242 329.79226685 C137.76880892 329.69111401 169.60058577 323.46354259 200.06005859 310.41992188 C200.8634668 310.07735352 201.666875 309.73478516 202.49462891 309.38183594 C211.92223178 305.29463679 220.90424861 300.56948465 229.68505859 295.23242188 C230.5095752 294.74547852 231.3340918 294.25853516 232.18359375 293.75683594 C236.78672113 290.90151941 236.78672113 290.90151941 239.20849609 286.18164062 C239.36069941 283.27513826 239.36069941 283.27513826 237.06005859 281.41992188 C231.24207858 281.70860027 226.49013942 283.71126104 221.18505859 285.98242188 C187.04627017 300.03731832 149.14078987 309.45598351 112.07568359 309.62304688 C111.05819031 309.62874695 110.04069702 309.63444702 108.99237061 309.64031982 C106.84778866 309.6497045 104.70319272 309.65627755 102.55859375 309.66015625 C99.35958957 309.66977298 96.161254 309.7008234 92.96240234 309.73242188 C74.007414 309.83078392 55.5656761 307.78243862 37.06005859 303.66992188 C35.89345703 303.41460693 34.72685547 303.15929199 33.52490234 302.89624023 C22.1714144 300.33969789 11.10304013 297.07516503 0.06005859 293.41992188 C-0.78427734 293.14567383 -1.62861328 292.87142578 -2.49853516 292.58886719 C-20.32659807 286.76901982 -37.6139513 279.42436521 -54.24560547 270.75610352 C-57.42371697 268.99101227 -57.42371697 268.99101227 -60.93994141 268.41992188 Z " fill="#000000" transform="translate(149.93994140625,49.580078125)"/>
</svg>
